<?xml version="1.0" standalone="no"?>
<!DOCTYPE svg PUBLIC "-//W3C//DTD SVG 20010904//EN"
 "http://www.w3.org/TR/2001/REC-SVG-20010904/DTD/svg10.dtd">
<svg version="1.0" xmlns="http://www.w3.org/2000/svg"
 width="104.000000pt" height="135.000000pt" viewBox="0 0 104.000000 135.000000"
 preserveAspectRatio="xMidYMid meet">

<g transform="translate(0.000000,135.000000) scale(0.100000,-0.100000)"
fill="#004c54" stroke="none">
<path d="M560 1333 c-177 -10 -307 -88 -375 -227 -26 -54 -55 -169 -55 -223
l0 -33 165 0 165 0 6 28 c28 126 48 152 118 152 57 0 86 -32 86 -94 -1 -80
-24 -108 -332 -411 l-295 -290 -12 -91 c-6 -50 -11 -98 -11 -107 0 -16 34 -17
434 -17 l434 0 6 38 c3 20 10 75 16 122 6 47 13 97 16 113 l6 27 -193 0 -193
0 190 193 c105 105 203 212 217 237 55 97 74 267 40 366 -24 70 -110 154 -188
183 -62 24 -166 38 -245 34z m185 -58 c82 -22 147 -66 186 -127 29 -45 33 -60
37 -139 6 -114 -20 -205 -79 -280 -23 -28 -132 -141 -243 -250 l-201 -198 218
-1 217 0 -1 -22 c0 -13 -6 -61 -12 -108 l-12 -85 -398 -3 -399 -2 6 27 c3 16
8 51 11 79 l7 52 284 277 c156 152 296 297 310 321 64 109 29 247 -66 254 -94
8 -137 -23 -166 -115 l-18 -55 -128 0 c-70 0 -128 4 -128 8 0 32 44 170 65
206 29 50 88 106 134 131 87 45 264 59 376 30z"/>
</g>
</svg>
