<?xml version="1.0" standalone="no"?>
<!DOCTYPE svg PUBLIC "-//W3C//DTD SVG 20010904//EN"
 "http://www.w3.org/TR/2001/REC-SVG-20010904/DTD/svg10.dtd">
<svg version="1.0" xmlns="http://www.w3.org/2000/svg"
 width="274.000000pt" height="404.000000pt" viewBox="0 0 274.000000 404.000000"
 preserveAspectRatio="xMidYMid meet">

<g transform="translate(0.000000,404.000000) scale(0.100000,-0.100000)"
fill="#004c54" stroke="none">
<path d="M1155 3959 c-310 -28 -561 -133 -736 -308 -123 -123 -196 -247 -253
-429 -43 -137 -58 -243 -63 -459 l-6 -203 502 0 501 0 0 74 c0 179 37 315 104
382 46 47 93 64 177 64 135 0 232 -64 264 -174 13 -45 16 -82 12 -150 -7 -128
-38 -189 -118 -233 -31 -16 -65 -18 -361 -21 l-328 -3 0 -449 0 -449 333 -3
c318 -3 334 -4 372 -25 46 -24 75 -54 101 -103 16 -29 19 -57 19 -175 0 -125
-2 -145 -23 -190 -51 -110 -127 -155 -267 -155 -120 0 -158 12 -210 66 -61 62
-85 138 -92 287 l-6 117 -503 0 -504 0 0 -52 c3 -604 187 -965 595 -1168 166
-82 346 -125 584 -139 251 -14 490 14 678 80 551 193 840 707 742 1319 -33
204 -122 375 -270 521 l-77 76 66 69 c141 147 231 330 263 535 18 122 7 415
-20 514 -91 329 -330 580 -671 705 -210 76 -511 106 -805 79z m390 -129 c323
-27 553 -121 734 -302 111 -110 179 -230 224 -392 19 -71 22 -104 21 -276 -1
-228 -14 -295 -89 -447 -52 -106 -157 -226 -264 -300 -36 -26 -70 -50 -75 -54
-4 -4 32 -34 80 -67 172 -115 287 -270 344 -462 32 -105 40 -408 15 -532 -75
-376 -358 -663 -750 -762 -249 -63 -595 -61 -851 4 -228 58 -419 184 -543 357
-95 132 -163 338 -176 535 -3 46 -8 100 -11 121 l-4 37 373 0 374 0 6 -61 c8
-72 32 -159 59 -213 31 -61 113 -141 168 -165 110 -47 299 -46 404 3 153 71
228 214 229 436 1 210 -58 332 -196 400 -80 39 -172 50 -434 50 l-203 0 0 310
0 310 193 0 c105 0 230 4 275 10 232 26 342 163 342 426 0 166 -51 273 -167
350 -72 48 -132 64 -239 64 -155 0 -244 -43 -318 -154 -41 -62 -81 -191 -92
-295 l-7 -71 -368 0 -369 0 0 80 c0 95 23 271 50 375 98 383 388 620 823 675
178 22 273 24 442 10z"/>
</g>
</svg>
