<?xml version="1.0" standalone="no"?>
<!DOCTYPE svg PUBLIC "-//W3C//DTD SVG 20010904//EN"
 "http://www.w3.org/TR/2001/REC-SVG-20010904/DTD/svg10.dtd">
<svg version="1.0" xmlns="http://www.w3.org/2000/svg"
 width="292.000000pt" height="387.000000pt" viewBox="0 0 292.000000 387.000000"
 preserveAspectRatio="xMidYMid meet">

<g transform="translate(0.000000,387.000000) scale(0.100000,-0.100000)"
fill="#004c54" stroke="none">
<path d="M1610 3447 c-156 -210 -549 -737 -874 -1171 l-589 -788 -43 -317
c-24 -174 -46 -333 -49 -353 l-5 -38 685 0 685 0 -6 -37 c-3 -21 -24 -186 -47
-368 l-43 -330 500 -3 c274 -1 501 -1 502 1 3 3 94 703 94 724 0 10 40 13 170
13 105 0 170 4 170 10 0 5 27 205 60 444 33 239 60 437 60 440 0 3 -75 7 -168
8 l-167 3 137 1050 c75 578 137 1060 138 1073 l0 22 -462 -1 -463 -1 -285
-381z m1060 230 c0 -16 -267 -2056 -275 -2104 l-6 -33 172 0 171 0 -5 -22 c-3
-13 -22 -152 -44 -310 l-38 -288 -167 0 c-93 0 -168 -1 -169 -2 0 -2 -22 -169
-48 -373 l-46 -370 -371 -3 -371 -2 43 337 c24 186 46 355 49 376 l5 37 -685
0 -685 0 4 23 c3 12 20 129 37 259 l33 238 843 1125 842 1125 356 0 c288 0
355 -3 355 -13z"/>
<path d="M1452 2157 c-109 -144 -260 -343 -334 -443 l-136 -181 331 5 c183 2
334 8 337 13 3 5 23 140 44 301 21 161 47 343 56 403 10 61 15 113 11 117 -3
4 -29 16 -58 27 l-52 20 -199 -262z m117 -251 c-16 -121 -30 -220 -31 -222 -2
-1 -67 -4 -144 -6 -130 -3 -141 -2 -130 14 37 52 331 437 332 435 2 -1 -10
-101 -27 -221z"/>
</g>
</svg>
