<?xml version="1.0" standalone="no"?>
<!DOCTYPE svg PUBLIC "-//W3C//DTD SVG 20010904//EN"
 "http://www.w3.org/TR/2001/REC-SVG-20010904/DTD/svg10.dtd">
<svg version="1.0" xmlns="http://www.w3.org/2000/svg"
 width="64.000000pt" height="54.000000pt" viewBox="0 0 64.000000 54.000000"
 preserveAspectRatio="xMidYMid meet">

<g transform="translate(0.000000,54.000000) scale(0.100000,-0.100000)"
fill="#004c54" stroke="none">
<path d="M158 393 l-153 -138 48 -3 47 -3 0 -125 0 -124 75 0 75 0 0 95 0 95
65 0 65 0 0 -95 0 -95 80 0 80 0 0 125 0 125 40 0 c22 0 40 4 40 8 0 9 -284
265 -299 270 -5 2 -78 -59 -163 -135z"/>
</g>
</svg>
