<?xml version="1.0" standalone="no"?>
<!DOCTYPE svg PUBLIC "-//W3C//DTD SVG 20010904//EN"
 "http://www.w3.org/TR/2001/REC-SVG-20010904/DTD/svg10.dtd">
<svg version="1.0" xmlns="http://www.w3.org/2000/svg"
 width="444.000000pt" height="237.000000pt" viewBox="0 0 444.000000 237.000000"
 preserveAspectRatio="xMidYMid meet">

<g transform="translate(0.000000,237.000000) scale(0.100000,-0.100000)"
fill="#004c54" stroke="none">
<path d="M662 2342 c-11 -15 -40 -63 -64 -107 -25 -44 -61 -107 -80 -140 -52
-90 -188 -325 -209 -362 -11 -18 -28 -48 -38 -65 -20 -34 -189 -327 -223 -388
-11 -19 -27 -44 -34 -55 -8 -11 -14 -27 -14 -37 0 -9 32 -73 71 -140 40 -68
101 -175 136 -238 36 -63 74 -127 84 -142 11 -14 19 -28 19 -31 0 -3 39 -72
86 -154 93 -159 112 -192 145 -251 12 -20 41 -70 65 -109 24 -40 44 -77 44
-81 0 -5 8 -16 18 -25 17 -15 146 -17 1559 -17 l1542 0 14 28 c22 41 100 180
137 242 18 30 41 70 51 88 11 17 27 47 38 65 10 17 77 133 149 257 71 124 164
284 206 357 42 72 76 140 76 150 0 10 -10 34 -22 53 -11 19 -64 109 -116 200
-52 91 -114 198 -138 237 -24 40 -44 75 -44 77 0 2 -21 40 -47 83 -25 43 -59
103 -76 133 -16 30 -36 62 -43 71 -8 8 -14 18 -14 21 0 3 -23 45 -52 94 -28
49 -56 98 -62 109 -6 11 -24 39 -39 62 l-27 43 -1540 -1 -1539 0 -19 -27z"/>
</g>
</svg>
