<svg version="1.1" viewBox="0.0 0.0 200.0 200.0" fill="none" stroke="none" stroke-linecap="square" stroke-miterlimit="10" xmlns:xlink="http://www.w3.org/1999/xlink" xmlns="http://www.w3.org/2000/svg"><clipPath id="p.0"><path d="m0 0l200.0 0l0 200.0l-200.0 0l0 -200.0z" clip-rule="nonzero"/></clipPath><g clip-path="url(#p.0)"><path fill="#000000" fill-opacity="0.0" d="m0 0l200.0 0l0 200.0l-200.0 0z" fill-rule="evenodd"/><path fill="#abd0e3" d="m34.27305 98.87122l36.259842 -72.51965l85.05512 0l36.259842 72.51965l-36.259842 72.519646l-85.05512 0z" fill-rule="evenodd"/><path stroke="#abd0e3" stroke-width="4.0" stroke-linejoin="round" stroke-linecap="butt" d="m34.27305 98.87122l36.259842 -72.51965l85.05512 0l36.259842 72.51965l-36.259842 72.519646l-85.05512 0z" fill-rule="evenodd"/><path fill="#ffffff" d="m15.640502 103.84498l36.259842 -72.51965l85.055115 0l36.259842 72.51965l-36.259842 72.519646l-85.055115 0z" fill-rule="evenodd"/><path stroke="#004568" stroke-width="4.0" stroke-linejoin="round" stroke-linecap="butt" d="m15.640502 103.84498l36.259842 -72.51965l85.055115 0l36.259842 72.51965l-36.259842 72.519646l-85.055115 0z" fill-rule="evenodd"/><path fill="#000000" fill-opacity="0.0" d="m21.887138 67.20998l144.06299 0l0 42.015747l-144.06299 0z" fill-rule="evenodd"/><path fill="#004568" d="m48.27743 89.3331q0 1.140625 -0.28125 2.0625q-0.28125 0.90625 -0.84375 1.546875q-0.546875 0.640625 -1.390625 1.0q-0.828125 0.34375 -1.921875 0.34375q-0.5 0 -0.984375 -0.0625q-0.484375 -0.0625 -1.015625 -0.203125l0.125 -1.484375q0.015625 -0.203125 0.15625 -0.328125q0.140625 -0.125 0.390625 -0.125q0.15625 0 0.40625 0.0625q0.265625 0.0625 0.65625 0.0625q0.53125 0 0.9375 -0.15625q0.421875 -0.15625 0.6875 -0.484375q0.28125 -0.34375 0.421875 -0.875q0.140625 -0.53125 0.140625 -1.296875l0 -8.75l2.515625 0l0 8.6875zm10.090286 4.796875l-1.03125 0q-0.328125 0 -0.515625 -0.09375q-0.1875 -0.109375 -0.28125 -0.40625l-0.203125 -0.671875q-0.375 0.328125 -0.71875 0.578125q-0.34375 0.234375 -0.71875 0.40625q-0.375 0.171875 -0.796875 0.25q-0.421875 0.09375 -0.9375 0.09375q-0.609375 0 -1.125 -0.15625q-0.5 -0.171875 -0.875 -0.5q-0.359375 -0.328125 -0.578125 -0.8125q-0.203125 -0.484375 -0.203125 -1.125q0 -0.546875 0.28125 -1.078125q0.296875 -0.53125 0.953125 -0.953125q0.671875 -0.421875 1.765625 -0.703125q1.09375 -0.28125 2.734375 -0.3125l0 -0.5625q0 -0.953125 -0.40625 -1.40625q-0.40625 -0.46875 -1.1875 -0.46875q-0.546875 0 -0.921875 0.125q-0.375 0.125 -0.65625 0.296875q-0.265625 0.15625 -0.5 0.296875q-0.234375 0.125 -0.515625 0.125q-0.234375 0 -0.40625 -0.125q-0.171875 -0.125 -0.265625 -0.296875l-0.421875 -0.734375q1.65625 -1.515625 3.984375 -1.515625q0.84375 0 1.5 0.28125q0.65625 0.265625 1.109375 0.765625q0.453125 0.484375 0.6875 1.171875q0.25 0.671875 0.25 1.484375l0 6.046875zm-4.484375 -1.4375q0.359375 0 0.65625 -0.0625q0.296875 -0.0625 0.5625 -0.1875q0.265625 -0.140625 0.515625 -0.328125q0.25 -0.1875 0.5 -0.453125l0 -1.609375q-1.015625 0.03125 -1.6875 0.171875q-0.671875 0.125 -1.09375 0.328125q-0.40625 0.1875 -0.578125 0.453125q-0.171875 0.25 -0.171875 0.5625q0 0.609375 0.359375 0.875q0.359375 0.25 0.9375 0.25zm6.750931 1.4375l0 -9.578125l1.40625 0q0.453125 0 0.59375 0.421875l0.140625 0.71875q0.25 -0.28125 0.515625 -0.515625q0.28125 -0.234375 0.59375 -0.40625q0.3125038 -0.171875 0.6718788 -0.265625q0.359375 -0.09375 0.796875 -0.09375q0.90625 0 1.484375 0.5q0.578125 0.484375 0.875 1.296875q0.21875 -0.484375 0.546875 -0.8125q0.34375 -0.34375 0.75 -0.5625q0.40625 -0.21875 0.84375 -0.3125q0.453125 -0.109375 0.921875 -0.109375q0.78125 0 1.390625 0.25q0.625 0.234375 1.046875 0.703125q0.421875 0.46875 0.640625 1.140625q0.21875 0.671875 0.21875 1.53125l0 6.09375l-2.296875 0l0 -6.09375q0 -0.90625 -0.40625 -1.359375q-0.40625 -0.46875 -1.171875 -0.46875q-0.359375 0 -0.671875 0.125q-0.296875 0.109375 -0.53125 0.34375q-0.21875 0.21875 -0.359375 0.578125q-0.125 0.34375 -0.125 0.78125l0 6.09375l-2.3125 0l0 -6.09375q0 -0.953125 -0.390625 -1.390625q-0.375 -0.4375 -1.140625 -0.4375q-0.484375 0 -0.9218788 0.25q-0.4375 0.234375 -0.8125 0.671875l0 7.0l-2.296875 0zm19.661701 -9.71875q0.90625 0 1.65625 0.296875q0.765625 0.28125 1.3125 0.84375q0.5625 0.546875 0.859375 1.359375q0.3125 0.796875 0.3125 1.84375q0 0.25 -0.03125 0.421875q-0.015625 0.171875 -0.078125 0.28125q-0.0625 0.09375 -0.171875 0.140625q-0.09375 0.03125 -0.25 0.03125l-5.921875 0q0.109375 1.484375 0.796875 2.171875q0.6875 0.6875 1.828125 0.6875q0.5625 0 0.96875 -0.125q0.40625 -0.140625 0.703125 -0.296875q0.3125 -0.15625 0.53125 -0.28125q0.234375 -0.140625 0.453125 -0.140625q0.140625 0 0.234375 0.0625q0.109375 0.046875 0.1875 0.15625l0.671875 0.84375q-0.390625 0.4375 -0.875 0.75q-0.46875 0.296875 -0.984375 0.484375q-0.515625 0.171875 -1.0625 0.25q-0.53125 0.078125 -1.03125 0.078125q-1.0 0 -1.859375 -0.328125q-0.859375 -0.328125 -1.5 -0.96875q-0.625 -0.65625 -0.984375 -1.609375q-0.359375 -0.96875 -0.359375 -2.21875q0 -0.984375 0.3125 -1.84375q0.3125 -0.875 0.90625 -1.5q0.59375 -0.640625 1.4375 -1.015625q0.859375 -0.375 1.9375 -0.375zm0.046875 1.65625q-1.015625 0 -1.578125 0.5625q-0.5625 0.5625 -0.734375 1.609375l4.328125 0q0 -0.4375 -0.125 -0.828125q-0.109375 -0.40625 -0.359375 -0.703125q-0.25 -0.296875 -0.640625 -0.46875q-0.375 -0.171875 -0.890625 -0.171875zm11.643639 0.359375q-0.09375 0.140625 -0.203125 0.203125q-0.09375 0.0625 -0.25 0.0625q-0.171875 0 -0.359375 -0.09375q-0.1875 -0.09375 -0.4375 -0.203125q-0.25 -0.125 -0.578125 -0.21875q-0.328125 -0.09375 -0.765625 -0.09375q-0.671875 0 -1.0625 0.296875q-0.390625 0.28125 -0.390625 0.75q0 0.3125 0.1875 0.53125q0.203125 0.203125 0.53125 0.359375q0.34375 0.15625 0.75 0.28125q0.421875 0.125 0.859375 0.28125q0.453125 0.140625 0.859375 0.34375q0.421875 0.1875 0.75 0.484375q0.34375 0.28125 0.53125 0.703125q0.203125 0.40625 0.203125 0.984375q0 0.6875 -0.25 1.28125q-0.25 0.578125 -0.734375 1.0q-0.484375 0.421875 -1.203125 0.671875q-0.703125 0.234375 -1.625 0.234375q-0.5 0 -0.96875 -0.09375q-0.46875 -0.09375 -0.90625 -0.25q-0.4375 -0.15625 -0.8125 -0.375q-0.35936737 -0.21875 -0.6406174 -0.46875l0.5312424 -0.875q0.109375 -0.15625 0.25 -0.234375q0.140625 -0.09375 0.34375 -0.09375q0.21875 0 0.40625 0.125q0.203125 0.125 0.453125 0.265625q0.25 0.140625 0.578125 0.265625q0.34375 0.109375 0.875 0.109375q0.40625 0 0.703125 -0.09375q0.296875 -0.09375 0.484375 -0.25q0.1875 -0.171875 0.265625 -0.375q0.09375 -0.203125 0.09375 -0.4375q0 -0.328125 -0.203125 -0.546875q-0.1875 -0.21875 -0.53125 -0.375q-0.328125 -0.15625 -0.75 -0.28125q-0.421875 -0.125 -0.875 -0.265625q-0.4375 -0.15625 -0.859375 -0.359375q-0.421875 -0.203125 -0.75 -0.5q-0.328125 -0.3125 -0.53125 -0.765625q-0.20311737 -0.453125 -0.20311737 -1.078125q0 -0.59375 0.23436737 -1.125q0.234375 -0.53125 0.6875 -0.921875q0.453125 -0.40625 1.125 -0.640625q0.671875 -0.234375 1.5625 -0.234375q0.984375 0 1.796875 0.328125q0.8125 0.328125 1.359375 0.859375l-0.53125 0.828125zm12.4096985 5.859375q0.84375 0 1.46875 -0.15625q0.625 -0.15625 1.203125 -0.421875l0 -2.453125l-1.6875 0q-0.25 0 -0.390625 -0.140625q-0.140625 -0.140625 -0.140625 -0.328125l0 -1.421875l4.5 0l0 5.453125q-0.515625 0.375 -1.078125 0.65625q-0.546875 0.28125 -1.1875 0.453125q-0.625 0.171875 -1.34375 0.265625q-0.71875 0.09375 -1.546875 0.09375q-1.46875 0 -2.71875 -0.515625q-1.234375 -0.515625 -2.140625 -1.421875q-0.90625 -0.921875 -1.421875 -2.1875q-0.5 -1.28125 -0.5 -2.78125q0 -1.515625 0.484375 -2.78125q0.5 -1.265625 1.40625 -2.171875q0.921875 -0.921875 2.21875 -1.421875q1.296875 -0.515625 2.90625 -0.515625q1.65625 0 2.859375 0.5q1.203125 0.484375 2.046875 1.265625l-0.734375 1.140625q-0.203125 0.34375 -0.5625 0.34375q-0.21875 0 -0.453125 -0.15625q-0.296875 -0.171875 -0.609375 -0.34375q-0.3125 -0.1875 -0.703125 -0.3125q-0.375 -0.125 -0.84375 -0.203125q-0.46875 -0.09375 -1.078125 -0.09375q-1.0 0 -1.8125 0.34375q-0.8125 0.328125 -1.375 0.953125q-0.5625 0.625 -0.875 1.5q-0.3125 0.875 -0.3125 1.953125q0 1.171875 0.328125 2.078125q0.328125 0.90625 0.90625 1.53125q0.59375 0.625 1.40625 0.96875q0.8125 0.328125 1.78125 0.328125zm7.1603394 1.84375l0 -9.578125l1.40625 0q0.453125 0 0.59375 0.421875l0.15625 0.765625q0.28125 -0.296875 0.59375 -0.53125q0.328125 -0.25 0.6875 -0.421875q0.359375 -0.1875 0.765625 -0.28125q0.421875 -0.09375 0.90625 -0.09375q0.78125 0 1.390625 0.265625q0.609375 0.265625 1.015625 0.75q0.40625 0.46875 0.609375 1.140625q0.21875 0.671875 0.21875 1.46875l0 6.09375l-2.3125 0l0 -6.09375q0 -0.875 -0.40625 -1.34375q-0.40625 -0.484375 -1.21875 -0.484375q-0.59375 0 -1.125 0.265625q-0.515625 0.265625 -0.984375 0.734375l0 6.921875l-2.296875 0zm18.106087 0l-1.03125 0q-0.328125 0 -0.515625 -0.09375q-0.18750763 -0.109375 -0.28125763 -0.40625l-0.203125 -0.671875q-0.375 0.328125 -0.71875 0.578125q-0.34375 0.234375 -0.71875 0.40625q-0.375 0.171875 -0.796875 0.25q-0.421875 0.09375 -0.9375 0.09375q-0.609375 0 -1.125 -0.15625q-0.5 -0.171875 -0.875 -0.5q-0.359375 -0.328125 -0.578125 -0.8125q-0.203125 -0.484375 -0.203125 -1.125q0 -0.546875 0.28125 -1.078125q0.296875 -0.53125 0.953125 -0.953125q0.671875 -0.421875 1.765625 -0.703125q1.09375 -0.28125 2.734375 -0.3125l0 -0.5625q0 -0.953125 -0.40625 -1.40625q-0.40625 -0.46875 -1.1875 -0.46875q-0.546875 0 -0.921875 0.125q-0.375 0.125 -0.65625 0.296875q-0.265625 0.15625 -0.5 0.296875q-0.234375 0.125 -0.515625 0.125q-0.234375 0 -0.40625 -0.125q-0.171875 -0.125 -0.265625 -0.296875l-0.421875 -0.734375q1.65625 -1.515625 3.984375 -1.515625q0.84375 0 1.5 0.28125q0.6562576 0.265625 1.1093826 0.765625q0.453125 0.484375 0.6875 1.171875q0.25 0.671875 0.25 1.484375l0 6.046875zm-4.4843826 -1.4375q0.359375 0 0.65625 -0.0625q0.296875 -0.0625 0.5625 -0.1875q0.265625 -0.140625 0.515625 -0.328125q0.25 -0.1875 0.5 -0.453125l0 -1.609375q-1.015625 0.03125 -1.6875 0.171875q-0.671875 0.125 -1.09375 0.328125q-0.40625 0.1875 -0.578125 0.453125q-0.171875 0.25 -0.171875 0.5625q0 0.609375 0.359375 0.875q0.359375 0.25 0.9375 0.25zm6.7509384 1.4375l0 -9.578125l1.40625 0q0.453125 0 0.59375 0.421875l0.15625 0.765625q0.28125 -0.296875 0.59375 -0.53125q0.328125 -0.25 0.6875 -0.421875q0.359375 -0.1875 0.765625 -0.28125q0.421875 -0.09375 0.90625 -0.09375q0.78125 0 1.390625 0.265625q0.609375 0.265625 1.015625 0.75q0.40625 0.46875 0.609375 1.140625q0.21875 0.671875 0.21875 1.46875l0 6.09375l-2.3125 0l0 -6.09375q0 -0.875 -0.40625 -1.34375q-0.40625 -0.484375 -1.21875 -0.484375q-0.59375 0 -1.125 0.265625q-0.515625 0.265625 -0.984375 0.734375l0 6.921875l-2.296875 0zm13.059204 -9.578125l0 9.578125l-2.3125 0l0 -9.578125l2.3125 0zm0.34375 -2.78125q0 0.296875 -0.125 0.5625q-0.125 0.265625 -0.328125 0.46875q-0.1875 0.1875 -0.46875 0.3125q-0.265625 0.109375 -0.578125 0.109375q-0.296875 0 -0.5625 -0.109375q-0.265625 -0.125 -0.46875 -0.3125q-0.1875 -0.203125 -0.3125 -0.46875q-0.109375 -0.265625 -0.109375 -0.5625q0 -0.3125 0.109375 -0.578125q0.125 -0.265625 0.3125 -0.453125q0.203125 -0.203125 0.46875 -0.3125q0.265625 -0.125 0.5625 -0.125q0.3125 0 0.578125 0.125q0.28125 0.109375 0.46875 0.3125q0.203125 0.1875 0.328125 0.453125q0.125 0.265625 0.125 0.578125z" fill-rule="nonzero"/><path fill="#000000" fill-opacity="0.0" d="m42.44357 91.20998l103.968506 0l0 58.173233l-103.968506 0z" fill-rule="evenodd"/><path fill="#000000" d="m61.402767 108.481224q0 0.953125 -0.703125 1.515625q-0.703125 0.5625 -1.859375 0.5625q-1.390625 0 -2.140625 -0.3125l0 -0.53125q0.828125 0.34375 2.09375 0.34375q0.9375 0 1.484375 -0.421875q0.546875 -0.4375 0.546875 -1.125q0 -0.4375 -0.1875 -0.71875q-0.171875 -0.28125 -0.59375 -0.515625q-0.40625 -0.234375 -1.203125 -0.5q-1.15625 -0.40625 -1.609375 -0.875q-0.4375 -0.46875 -0.4375 -1.234375q0 -0.859375 0.671875 -1.390625q0.671875 -0.546875 1.71875 -0.546875q1.0625 0 2.015625 0.40625l-0.203125 0.453125q-0.9375 -0.390625 -1.8125 -0.390625q-0.828125 0 -1.328125 0.390625q-0.5 0.390625 -0.5 1.0625q0 0.421875 0.140625 0.703125q0.15625 0.265625 0.5 0.484375q0.359375 0.203125 1.203125 0.515625q0.890625 0.296875 1.328125 0.59375q0.453125 0.28125 0.65625 0.65625q0.21875 0.359375 0.21875 0.875zm3.5880775 1.96875l-0.53125 0l0 -7.109375l-2.4843788 0l0 -0.5l5.484379 0l0 0.5l-2.46875 0l0 7.109375zm4.129959 -3.3125l0 3.3125l-0.53125 0l0 -7.609375l1.8125 0q1.40625 0 2.078125 0.53125q0.6875 0.515625 0.6875 1.5625q0 0.765625 -0.40625 1.296875q-0.40625 0.53125 -1.21875 0.75l2.0625 3.46875l-0.640625 0l-1.953125 -3.3125l-1.890625 0zm0 -0.453125l1.453125 0q0.953125 0 1.484375 -0.421875q0.53125 -0.4375 0.53125 -1.28125q0 -0.875 -0.515625 -1.265625q-0.515625 -0.390625 -1.703125 -0.390625l-1.25 0l0 3.359375zm9.957352 3.765625l-4.15625 0l0 -7.609375l4.15625 0l0 0.484375l-3.625 0l0 2.890625l3.421875 0l0 0.484375l-3.421875 0l0 3.265625l3.625 0l0 0.484375zm7.254669 0l-0.53125 0l-4.515625 -6.75l-0.03125 0q0.0625 1.203125 0.0625 1.8125l0 4.9375l-0.515625 0l0 -7.609375l0.53125 0l4.5 6.75l0.03125 0q-0.046875 -0.9375 -0.046875 -1.78125l0 -4.96875l0.515625 0l0 7.609375zm5.138321 -3.828125l2.8125 0l0 3.46875q-1.109375 0.46875 -2.484375 0.46875q-1.796875 0 -2.765625 -1.015625q-0.953125 -1.03125 -0.953125 -2.890625q0 -1.15625 0.46875 -2.046875q0.484375 -0.90625 1.359375 -1.390625q0.890625 -0.5 2.046875 -0.5q1.25 0 2.234375 0.46875l-0.21875 0.46875q-0.984375 -0.453125 -2.046875 -0.453125q-1.5 0 -2.390625 0.9375q-0.875 0.921875 -0.875 2.5q0 1.71875 0.828125 2.59375q0.84375 0.859375 2.46875 0.859375q1.046875 0 1.78125 -0.296875l0 -2.671875l-2.265625 0l0 -0.5zm6.706009 3.828125l-0.53125 0l0 -7.109375l-2.484375 0l0 -0.5l5.484375 0l0 0.5l-2.46875 0l0 7.109375zm9.114334 0l-0.546875 0l0 -3.734375l-4.4375 0l0 3.734375l-0.53125 0l0 -7.609375l0.53125 0l0 3.375l4.4375 0l0 -3.375l0.546875 0l0 7.609375zm8.573135 -2.6875l-3.078125 0l-1.0625 2.6875l-0.59375 0l3.0625 -7.640625l0.328125 0l3.0 7.640625l-0.59375 0l-1.0625 -2.6875zm-2.890625 -0.46875l2.71875 0l-1.03125 -2.75q-0.140625 -0.328125 -0.3125 -0.890625q-0.140625 0.5 -0.3125 0.90625l-1.0625 2.734375zm11.160416 3.15625l-0.53125 0l-4.515625 -6.75l-0.03125 0q0.0625 1.203125 0.0625 1.8125l0 4.9375l-0.515625 0l0 -7.609375l0.53125 0l4.5 6.75l0.03125 0q-0.046875 -0.9375 -0.046875 -1.78125l0 -4.96875l0.515625 0l0 7.609375zm7.935196 -3.875q0 1.90625 -1.015625 2.890625q-1.0 0.984375 -2.953125 0.984375l-1.8125 0l0 -7.609375l2.046875 0q1.828125 0 2.78125 0.953125q0.953125 0.953125 0.953125 2.78125zm-0.578125 0.015625q0 -1.625 -0.84375 -2.453125q-0.828125 -0.828125 -2.4375 -0.828125l-1.390625 0l0 6.671875l1.25 0q3.421875 0 3.421875 -3.390625z" fill-rule="nonzero"/><path fill="#000000" d="m60.776875 115.6406l2.078125 0q1.4218788 0 2.0781288 0.484375q0.65625 0.46875 0.65625 1.4375q0 0.671875 -0.40625 1.109375q-0.390625 0.4375 -1.171875 0.5625l0 0.03125q0.90625 0.140625 1.328125 0.578125q0.4375 0.4375 0.4375 1.21875q0 1.046875 -0.703125 1.625q-0.6875 0.5625 -1.9687538 0.5625l-2.328125 0l0 -7.609375zm0.53125 3.390625l1.671875 0q1.0781288 0 1.5625038 -0.359375q0.484375 -0.359375 0.484375 -1.109375q0 -0.765625 -0.546875 -1.109375q-0.5468788 -0.34375 -1.6406288 -0.34375l-1.53125 0l0 2.921875zm0 0.46875l0 3.28125l1.78125 0q2.1250038 0 2.1250038 -1.71875q0 -1.5625 -2.2343788 -1.5625l-1.671875 0zm10.305973 3.75l-4.15625 0l0 -7.609375l4.15625 0l0 0.484375l-3.625 0l0 2.890625l3.421875 0l0 0.484375l-3.421875 0l0 3.265625l3.625 0l0 0.484375zm7.239044 0l-0.546875 0l0 -3.734375l-4.4375 0l0 3.734375l-0.53125 0l0 -7.609375l0.53125 0l0 3.375l4.4375 0l0 -3.375l0.546875 0l0 7.609375zm5.805008 -2.6875l-3.078125 0l-1.0625 2.6875l-0.59375 0l3.0625 -7.640625l0.328125 0l3.0 7.640625l-0.59375 0l-1.0625 -2.6875zm-2.890625 -0.46875l2.71875 0l-1.03125 -2.75q-0.140625 -0.328125 -0.3125 -0.890625q-0.140625 0.5 -0.3125 0.90625l-1.0625 2.734375zm10.129166 -4.453125l0.578125 0l-2.859375 7.609375l-0.46875 0l-2.828125 -7.609375l0.5625 0l1.921875 5.171875q0.4375 1.171875 0.578125 1.765625q0.109375 -0.390625 0.421875 -1.21875l2.09375 -5.71875zm1.650238 7.609375l0 -7.609375l0.53125 0l0 7.609375l-0.53125 0zm9.0755005 -3.8125q0 1.8125 -0.90625 2.875q-0.90625 1.046875 -2.5 1.046875q-1.578125 0 -2.484375 -1.046875q-0.90625 -1.0625 -0.90625 -2.890625q0 -1.8125 0.90625 -2.859375q0.921875 -1.046875 2.5 -1.046875q1.59375 0 2.484375 1.0625q0.90625 1.046875 0.90625 2.859375zm-6.21875 0q0 1.625 0.71875 2.53125q0.734375 0.890625 2.09375 0.890625q1.375 0 2.09375 -0.890625q0.734375 -0.890625 0.734375 -2.53125q0 -1.640625 -0.734375 -2.515625q-0.71875 -0.890625 -2.078125 -0.890625q-1.359375 0 -2.09375 0.890625q-0.734375 0.890625 -0.734375 2.515625zm13.564957 -3.796875l0 4.921875q0 1.3125 -0.765625 2.0625q-0.75 0.734375 -2.109375 0.734375q-1.328125 0 -2.078125 -0.734375q-0.734375 -0.75 -0.734375 -2.078125l0 -4.90625l0.546875 0l0 4.921875q0 1.09375 0.59375 1.71875q0.609375 0.609375 1.734375 0.609375q1.078125 0 1.671875 -0.59375q0.609375 -0.609375 0.609375 -1.6875l0 -4.96875l0.53125 0zm2.601883 4.296875l0 3.3125l-0.53125 0l0 -7.609375l1.8125 0q1.40625 0 2.078125 0.53125q0.6875 0.515625 0.6875 1.5625q0 0.765625 -0.40625 1.296875q-0.40625 0.53125 -1.21875 0.75l2.0625 3.46875l-0.640625 0l-1.953125 -3.3125l-1.890625 0zm0 -0.453125l1.453125 0q0.953125 0 1.484375 -0.421875q0.53125 -0.4375 0.53125 -1.28125q0 -0.875 -0.515625 -1.265625q-0.515625 -0.390625 -1.703125 -0.390625l-1.25 0l0 3.359375zm9.457352 1.078125l-3.078125 0l-1.0625 2.6875l-0.59375 0l3.0625 -7.640625l0.328125 0l3.0 7.640625l-0.59375 0l-1.0625 -2.6875zm-2.890625 -0.46875l2.71875 0l-1.03125 -2.75q-0.140625 -0.328125 -0.3125 -0.890625q-0.140625 0.5 -0.3125 0.90625l-1.0625 2.734375zm5.6291656 3.15625l0 -7.609375l0.53125 0l0 7.109375l3.6249924 0l0 0.5l-4.1562424 0z" fill-rule="nonzero"/><path fill="#000000" d="m81.03629 128.8156q-1.4375 0 -2.265625 0.921875q-0.8125 0.90625 -0.8125 2.5q0 1.625 0.765625 2.53125q0.78125 0.890625 2.21875 0.890625q0.96875 0 1.765625 -0.234375l0 0.46875q-0.75 0.265625 -1.890625 0.265625q-1.59375 0 -2.515625 -1.03125q-0.921875 -1.046875 -0.921875 -2.90625q0 -1.15625 0.4375 -2.03125q0.4375 -0.890625 1.265625 -1.375q0.828125 -0.484375 1.921875 -0.484375q1.109375 0 1.984375 0.421875l-0.203125 0.46875q-0.84375 -0.40625 -1.75 -0.40625zm9.759155 3.421875q0 1.8125 -0.90625 2.875q-0.90625 1.046875 -2.5 1.046875q-1.578125 0 -2.484375 -1.046875q-0.90625 -1.0625 -0.90625 -2.890625q0 -1.8125 0.90625 -2.859375q0.921875 -1.046875 2.5 -1.046875q1.59375 0 2.484375 1.0625q0.90625 1.046875 0.90625 2.859375zm-6.21875 0q0 1.625 0.71875 2.53125q0.734375 0.890625 2.09375 0.890625q1.375 0 2.09375 -0.890625q0.734375 -0.890625 0.734375 -2.53125q0 -1.640625 -0.734375 -2.515625q-0.71875 -0.890625 -2.078125 -0.890625q-1.359375 0 -2.09375 0.890625q-0.734375 0.890625 -0.734375 2.515625zm11.627457 1.125l-3.078125 0l-1.0625 2.6875l-0.59375 0l3.0625 -7.640625l0.328125 0l3.0 7.640625l-0.59375 0l-1.0625 -2.6875zm-2.890625 -0.46875l2.71875 0l-1.03125 -2.75q-0.140625 -0.328125 -0.3125 -0.890625q-0.140625 0.5 -0.3125 0.90625l-1.0625 2.734375zm8.879166 -4.078125q-1.4375 0 -2.265625 0.921875q-0.8125 0.90625 -0.8125 2.5q0 1.625 0.765625 2.53125q0.78125 0.890625 2.21875 0.890625q0.96875 0 1.765625 -0.234375l0 0.46875q-0.75 0.265625 -1.890625 0.265625q-1.59375 0 -2.515625 -1.03125q-0.921875 -1.046875 -0.921875 -2.90625q0 -1.15625 0.4375 -2.03125q0.4375 -0.890625 1.265625 -1.375q0.828125 -0.484375 1.921875 -0.484375q1.109375 0 1.984375 0.421875l-0.203125 0.46875q-0.84375 -0.40625 -1.75 -0.40625zm8.884155 7.234375l-0.546875 0l0 -3.734375l-4.4375 0l0 3.734375l-0.53125 0l0 -7.609375l0.53125 0l0 3.375l4.4375 0l0 -3.375l0.546875 0l0 7.609375z" fill-rule="nonzero"/></g></svg>