<?xml version="1.0" standalone="no"?>
<!DOCTYPE svg PUBLIC "-//W3C//DTD SVG 20010904//EN"
 "http://www.w3.org/TR/2001/REC-SVG-20010904/DTD/svg10.dtd">
<svg version="1.0" xmlns="http://www.w3.org/2000/svg"
 width="271.000000pt" height="384.000000pt" viewBox="0 0 271.000000 384.000000"
 preserveAspectRatio="xMidYMid meet">

<g transform="translate(0.000000,384.000000) scale(0.100000,-0.100000)"
fill="#004c54" stroke="none">
<path d="M902 3405 c-354 -222 -648 -407 -653 -412 -5 -5 74 -160 192 -373
110 -200 202 -366 204 -368 1 -2 108 61 236 141 175 107 235 140 237 128 3
-15 -192 -1522 -204 -1583 l-6 -28 -379 0 c-324 0 -379 -2 -379 -14 0 -8 -25
-205 -55 -438 -30 -232 -55 -426 -55 -430 0 -5 567 -8 1260 -8 1001 0 1260 3
1260 13 0 6 27 207 58 445 l58 432 -378 0 c-340 0 -378 2 -378 16 0 15 365
2811 373 2862 l4 22 -376 -1 -376 -1 -643 -403z m1238 251 c0 -7 -83 -652
-185 -1432 -102 -781 -185 -1425 -185 -1431 0 -10 82 -13 375 -13 l375 0 -1
-27 c0 -16 -17 -156 -37 -313 l-37 -285 -1128 -3 c-620 -1 -1127 0 -1127 4 0
10 70 558 75 592 l6 32 379 0 c209 0 380 2 380 5 0 2 59 453 130 1001 72 548
129 999 126 1001 -3 3 -69 -34 -148 -82 -79 -49 -211 -130 -293 -180 l-151
-92 -141 255 -141 256 581 363 582 363 283 0 c234 0 282 -2 282 -14z"/>
</g>
</svg>
