<svg version="1.1" viewBox="0.0 0.0 200.0 200.0" fill="none" stroke="none" stroke-linecap="square" stroke-miterlimit="10" xmlns:xlink="http://www.w3.org/1999/xlink" xmlns="http://www.w3.org/2000/svg"><clipPath id="p.0"><path d="m0 0l200.0 0l0 200.0l-200.0 0l0 -200.0z" clip-rule="nonzero"/></clipPath><g clip-path="url(#p.0)"><path fill="#000000" fill-opacity="0.0" d="m0 0l200.0 0l0 200.0l-200.0 0z" fill-rule="evenodd"/><path fill="#abd0e3" d="m34.27305 98.87122l36.259842 -72.51965l85.05512 0l36.259842 72.51965l-36.259842 72.519646l-85.05512 0z" fill-rule="evenodd"/><path stroke="#abd0e3" stroke-width="4.0" stroke-linejoin="round" stroke-linecap="butt" d="m34.27305 98.87122l36.259842 -72.51965l85.05512 0l36.259842 72.51965l-36.259842 72.519646l-85.05512 0z" fill-rule="evenodd"/><path fill="#ffffff" d="m15.640502 103.84498l36.259842 -72.51965l85.055115 0l36.259842 72.51965l-36.259842 72.519646l-85.055115 0z" fill-rule="evenodd"/><path stroke="#004568" stroke-width="4.0" stroke-linejoin="round" stroke-linecap="butt" d="m15.640502 103.84498l36.259842 -72.51965l85.055115 0l36.259842 72.51965l-36.259842 72.519646l-85.055115 0z" fill-rule="evenodd"/><path fill="#000000" fill-opacity="0.0" d="m21.887138 67.20998l144.06299 0l0 42.015747l-144.06299 0z" fill-rule="evenodd"/><path fill="#004568" d="m55.078976 88.86435l0 5.265625l-2.5 0l0 -13.484375l4.109375 0q1.375 0 2.359375 0.28125q0.984375 0.28125 1.609375 0.796875q0.640625 0.515625 0.921875 1.234375q0.296875 0.703125 0.296875 1.5625q0 0.6875 -0.203125 1.296875q-0.1875 0.59375 -0.578125 1.09375q-0.375 0.5 -0.9375 0.875q-0.546875 0.359375 -1.25 0.59375q0.46875 0.265625 0.8125 0.765625l3.390625 4.984375l-2.265625 0q-0.328125 0 -0.5625 -0.125q-0.21875 -0.140625 -0.375 -0.375l-2.84375 -4.328125q-0.15625 -0.234375 -0.34375 -0.328125q-0.1875 -0.109375 -0.5625 -0.109375l-1.078125 0zm0 -1.8125l1.5625 0q0.71875 0 1.234375 -0.171875q0.53125 -0.171875 0.875 -0.484375q0.34375 -0.3125 0.5 -0.734375q0.171875 -0.4375 0.171875 -0.953125q0 -1.03125 -0.671875 -1.578125q-0.671875 -0.546875 -2.0625 -0.546875l-1.609375 0l0 4.46875zm13.579227 -2.640625q1.078125 0 1.953125 0.34375q0.875 0.34375 1.484375 0.984375q0.609375 0.625 0.9375 1.546875q0.34375 0.90625 0.34375 2.046875q0 1.125 -0.34375 2.046875q-0.328125 0.90625 -0.9375 1.5625q-0.609375 0.640625 -1.484375 0.984375q-0.875 0.34375 -1.953125 0.34375q-1.0625 0 -1.953125 -0.34375q-0.875 -0.34375 -1.5 -0.984375q-0.609375 -0.65625 -0.953125 -1.5625q-0.3437538 -0.921875 -0.3437538 -2.046875q0 -1.140625 0.3437538 -2.046875q0.34375 -0.921875 0.953125 -1.546875q0.625 -0.640625 1.5 -0.984375q0.890625 -0.34375 1.953125 -0.34375zm0 8.09375q1.203125 0 1.765625 -0.796875q0.578125 -0.8125 0.578125 -2.359375q0 -1.546875 -0.578125 -2.359375q-0.5625 -0.8125 -1.765625 -0.8125q-1.203125 0 -1.78125 0.8125q-0.578125 0.8125 -0.578125 2.359375q0 1.53125 0.578125 2.34375q0.578125 0.8125 1.78125 0.8125zm6.527954 1.625l0 -13.859375l2.296875 0l0 5.328125q0.5625 -0.53125 1.234375 -0.859375q0.671875 -0.328125 1.578125 -0.328125q0.78125 0 1.390625 0.265625q0.609375 0.265625 1.015625 0.75q0.40625 0.46875 0.609375 1.140625q0.21875 0.671875 0.21875 1.46875l0 6.09375l-2.3125 0l0 -6.09375q0 -0.875 -0.40625 -1.34375q-0.40625 -0.484375 -1.21875 -0.484375q-0.59375 0 -1.125 0.265625q-0.515625 0.265625 -0.984375 0.734375l0 6.921875l-2.296875 0zm13.059196 -9.578125l0 9.578125l-2.3125 0l0 -9.578125l2.3125 0zm0.34375 -2.78125q0 0.296875 -0.125 0.5625q-0.125 0.265625 -0.328125 0.46875q-0.1875 0.1875 -0.46875 0.3125q-0.265625 0.109375 -0.578125 0.109375q-0.296875 0 -0.5625 -0.109375q-0.265625 -0.125 -0.46875 -0.3125q-0.18749237 -0.203125 -0.31249237 -0.46875q-0.109375 -0.265625 -0.109375 -0.5625q0 -0.3125 0.109375 -0.578125q0.125 -0.265625 0.31249237 -0.453125q0.203125 -0.203125 0.46875 -0.3125q0.265625 -0.125 0.5625 -0.125q0.3125 0 0.578125 0.125q0.28125 0.109375 0.46875 0.3125q0.203125 0.1875 0.328125 0.453125q0.125 0.265625 0.125 0.578125zm5.399597 12.515625q-1.234375 0 -1.90625 -0.703125q-0.671875 -0.71875 -0.671875 -1.953125l0 -5.34375l-0.96875 0q-0.1875 0 -0.328125 -0.125q-0.140625 -0.125 -0.140625 -0.359375l0 -0.921875l1.546875 -0.25l0.484375 -2.609375q0.03125 -0.1875 0.171875 -0.28125q0.140625 -0.109375 0.34375 -0.109375l1.1875 0l0 3.015625l2.515625 0l0 1.640625l-2.515625 0l0 5.1875q0 0.453125 0.21875 0.703125q0.234375 0.25 0.609375 0.25q0.203125 0 0.34375 -0.046875q0.15625 -0.0625 0.265625 -0.109375q0.109375 -0.0625 0.1875 -0.109375q0.078125 -0.0625 0.171875 -0.0625q0.09375 0 0.15625 0.0625q0.078125 0.046875 0.140625 0.15625l0.703125 1.109375q-0.515625 0.421875 -1.171875 0.640625q-0.640625 0.21875 -1.34375 0.21875zm15.039383 -11.1875q-0.109375 0.203125 -0.25 0.296875q-0.125 0.078125 -0.3125 0.078125q-0.1875 0 -0.421875 -0.140625q-0.234375 -0.15625 -0.546875 -0.328125q-0.3125 -0.1875 -0.75 -0.328125q-0.421875 -0.140625 -1.0 -0.140625q-0.515625 0 -0.90625 0.125q-0.390625 0.125 -0.65625 0.359375q-0.265625 0.21875 -0.390625 0.53125q-0.125 0.3125 -0.125 0.6875q0 0.46875 0.265625 0.796875q0.265625 0.3125 0.703125 0.53125q0.4375 0.21875 0.984375 0.40625q0.5625 0.171875 1.140625 0.375q0.59375 0.203125 1.15625 0.46875q0.5625 0.265625 1.0 0.671875q0.4375 0.40625 0.703125 1.0q0.265625 0.578125 0.265625 1.421875q0 0.90625 -0.3125 1.703125q-0.3125 0.796875 -0.921875 1.390625q-0.59375 0.59375 -1.46875 0.9375q-0.859375 0.34375 -1.984375 0.34375q-0.640625 0 -1.265625 -0.140625q-0.625 -0.125 -1.203125 -0.34375q-0.578125 -0.234375 -1.078125 -0.5625q-0.484375 -0.328125 -0.890625 -0.734375l0.734375 -1.203125q0.109375 -0.125 0.25 -0.21875q0.140625 -0.09375 0.3125 -0.09375q0.234375 0 0.5 0.203125q0.28125 0.1875 0.640625 0.421875q0.375 0.234375 0.875 0.421875q0.5 0.1875 1.203125 0.1875q1.0625 0 1.65625 -0.5q0.59375 -0.515625 0.59375 -1.46875q0 -0.53125 -0.265625 -0.859375q-0.265625 -0.34375 -0.703125 -0.5625q-0.4375 -0.234375 -1.0 -0.390625q-0.5625 -0.15625 -1.140625 -0.34375q-0.578125 -0.1875 -1.140625 -0.453125q-0.5625 -0.265625 -1.0 -0.671875q-0.4375 -0.421875 -0.703125 -1.046875q-0.265625 -0.640625 -0.265625 -1.5625q0 -0.734375 0.296875 -1.4375q0.296875 -0.703125 0.859375 -1.234375q0.5625 -0.546875 1.375 -0.875q0.828125 -0.328125 1.875 -0.328125q1.203125 0 2.203125 0.375q1.015625 0.375 1.71875 1.046875l-0.609375 1.1875zm6.727829 1.3125q1.078125 0 1.953125 0.34375q0.875 0.34375 1.484375 0.984375q0.609375 0.625 0.9375 1.546875q0.34375 0.90625 0.34375 2.046875q0 1.125 -0.34375 2.046875q-0.328125 0.90625 -0.9375 1.5625q-0.609375 0.640625 -1.484375 0.984375q-0.875 0.34375 -1.953125 0.34375q-1.0625 0 -1.953125 -0.34375q-0.875 -0.34375 -1.5 -0.984375q-0.609375 -0.65625 -0.953125 -1.5625q-0.34375 -0.921875 -0.34375 -2.046875q0 -1.140625 0.34375 -2.046875q0.34375 -0.921875 0.953125 -1.546875q0.625 -0.640625 1.5 -0.984375q0.890625 -0.34375 1.953125 -0.34375zm0 8.09375q1.203125 0 1.765625 -0.796875q0.578125 -0.8125 0.578125 -2.359375q0 -1.546875 -0.578125 -2.359375q-0.5625 -0.8125 -1.765625 -0.8125q-1.203125 0 -1.78125 0.8125q-0.578125 0.8125 -0.578125 2.359375q0 1.53125 0.578125 2.34375q0.578125 0.8125 1.78125 0.8125zm6.527954 1.625l0 -9.578125l1.40625 0q0.453125 0 0.59375 0.421875l0.15625 0.765625q0.28125 -0.296875 0.59375 -0.53125q0.328125 -0.25 0.6875 -0.421875q0.359375 -0.1875 0.765625 -0.28125q0.421875 -0.09375 0.90625 -0.09375q0.7812576 0 1.3906326 0.265625q0.609375 0.265625 1.015625 0.75q0.40625 0.46875 0.609375 1.140625q0.21875 0.671875 0.21875 1.46875l0 6.09375l-2.3125 0l0 -6.09375q0 -0.875 -0.40625763 -1.34375q-0.40625 -0.484375 -1.21875 -0.484375q-0.59375 0 -1.125 0.265625q-0.515625 0.265625 -0.984375 0.734375l0 6.921875l-2.296875 0zm13.059212 -9.578125l0 9.578125l-2.3125 0l0 -9.578125l2.3125 0zm0.34375 -2.78125q0 0.296875 -0.125 0.5625q-0.125 0.265625 -0.328125 0.46875q-0.1875 0.1875 -0.46875 0.3125q-0.265625 0.109375 -0.578125 0.109375q-0.296875 0 -0.5625 -0.109375q-0.265625 -0.125 -0.46875 -0.3125q-0.1875 -0.203125 -0.3125 -0.46875q-0.109375 -0.265625 -0.109375 -0.5625q0 -0.3125 0.109375 -0.578125q0.125 -0.265625 0.3125 -0.453125q0.203125 -0.203125 0.46875 -0.3125q0.265625 -0.125 0.5625 -0.125q0.3125 0 0.578125 0.125q0.28125 0.109375 0.46875 0.3125q0.203125 0.1875 0.328125 0.453125q0.125 0.265625 0.125 0.578125z" fill-rule="nonzero"/><path fill="#000000" fill-opacity="0.0" d="m42.44357 91.20998l103.968506 0l0 71.08661l-103.968506 0z" fill-rule="evenodd"/><path fill="#000000" d="m60.14915 105.0281q0 1.109375 -0.75 1.703125q-0.75 0.578125 -2.125 0.578125l-1.171875 0l0 3.140625l-0.53125 0l0 -7.609375l1.859375 0q2.71875 0 2.71875 2.1875zm-4.046875 1.828125l1.046875 0q1.28125 0 1.84375 -0.421875q0.578125 -0.4375 0.578125 -1.390625q0 -0.875 -0.546875 -1.296875q-0.53125 -0.421875 -1.671875 -0.421875l-1.25 0l0 3.53125zm11.217869 3.59375l-0.546875 0l0 -3.734375l-4.437504 0l0 3.734375l-0.53125 0l0 -7.609375l0.53125 0l0 3.375l4.437504 0l0 -3.375l0.546875 0l0 7.609375zm3.898758 -3.4375l2.21875 -4.171875l0.578125 0l-2.53125 4.671875l0 2.9375l-0.546875 0l0 -2.890625l-2.546875 -4.71875l0.609375 0l2.21875 4.171875zm8.077835 1.46875q0 0.953125 -0.703125 1.515625q-0.703125 0.5625 -1.859375 0.5625q-1.390625 0 -2.140625 -0.3125l0 -0.53125q0.828125 0.34375 2.09375 0.34375q0.9375 0 1.484375 -0.421875q0.546875 -0.4375 0.546875 -1.125q0 -0.4375 -0.1875 -0.71875q-0.171875 -0.28125 -0.59375 -0.515625q-0.40625 -0.234375 -1.203125 -0.5q-1.15625 -0.40625 -1.609375 -0.875q-0.4375 -0.46875 -0.4375 -1.234375q0 -0.859375 0.671875 -1.390625q0.671875 -0.546875 1.71875 -0.546875q1.0625 0 2.015625 0.40625l-0.203125 0.453125q-0.9375 -0.390625 -1.8125 -0.390625q-0.828125 0 -1.328125 0.390625q-0.5 0.390625 -0.5 1.0625q0 0.421875 0.140625 0.703125q0.15625 0.265625 0.5 0.484375q0.359375 0.203125 1.203125 0.515625q0.890625 0.296875 1.328125 0.59375q0.453125 0.28125 0.65625 0.65625q0.21875 0.359375 0.21875 0.875zm1.6036987 1.96875l0 -7.609375l0.53125 0l0 7.609375l-0.53125 0zm9.0755005 -3.8125q0 1.8125 -0.90625 2.875q-0.90625 1.046875 -2.5 1.046875q-1.578125 0 -2.484375 -1.046875q-0.90625 -1.0625 -0.90625 -2.890625q0 -1.8125 0.90625 -2.859375q0.921875 -1.046875 2.5 -1.046875q1.59375 0 2.484375 1.0625q0.90625 1.046875 0.90625 2.859375zm-6.21875 0q0 1.625 0.71875 2.53125q0.734375 0.890625 2.09375 0.890625q1.375 0 2.09375 -0.890625q0.734375 -0.890625 0.734375 -2.53125q0 -1.640625 -0.734375 -2.515625q-0.71875 -0.890625 -2.078125 -0.890625q-1.359375 0 -2.09375 0.890625q-0.734375 0.890625 -0.734375 2.515625zm9.955582 3.8125l-0.53125 0l0 -7.109375l-2.484375 0l0 -0.5l5.484375 0l0 0.5l-2.46875 0l0 7.109375zm9.114334 0l-0.546875 0l0 -3.734375l-4.4375 0l0 3.734375l-0.53125 0l0 -7.609375l0.53125 0l0 3.375l4.4375 0l0 -3.375l0.546875 0l0 7.609375zm6.305008 0l-4.15625 0l0 -7.609375l4.15625 0l0 0.484375l-3.625 0l0 2.890625l3.421875 0l0 0.484375l-3.421875 0l0 3.265625l3.625 0l0 0.484375zm2.2546692 -3.3125l0 3.3125l-0.53125 0l0 -7.609375l1.8125 0q1.40625 0 2.078125 0.53125q0.6875 0.515625 0.6875 1.5625q0 0.765625 -0.40625 1.296875q-0.40625 0.53125 -1.21875 0.75l2.0625 3.46875l-0.640625 0l-1.953125 -3.3125l-1.890625 0zm0 -0.453125l1.453125 0q0.953125 0 1.484375 -0.421875q0.53125 -0.4375 0.53125 -1.28125q0 -0.875 -0.515625 -1.265625q-0.515625 -0.390625 -1.703125 -0.390625l-1.25 0l0 3.359375zm9.457352 1.078125l-3.078125 0l-1.0625 2.6875l-0.59375 0l3.0625 -7.640625l0.328125 0l3.0 7.640625l-0.59375 0l-1.0625 -2.6875zm-2.890625 -0.46875l2.71875 0l-1.03125 -2.75q-0.140625 -0.328125 -0.3125 -0.890625q-0.140625 0.5 -0.3125 0.90625l-1.0625 2.734375zm10.207291 -2.265625q0 1.109375 -0.75 1.703125q-0.75 0.578125 -2.125 0.578125l-1.171875 0l0 3.140625l-0.53125 0l0 -7.609375l1.859375 0q2.71875 0 2.71875 2.1875zm-4.046875 1.828125l1.046875 0q1.28125 0 1.84375 -0.421875q0.578125 -0.4375 0.578125 -1.390625q0 -0.875 -0.546875 -1.296875q-0.53125 -0.421875 -1.671875 -0.421875l-1.25 0l0 3.53125zm7.45224 0.15625l2.21875 -4.171875l0.578125 0l-2.53125 4.671875l0 2.9375l-0.546875 0l0 -2.890625l-2.546875 -4.71875l0.609375 0l2.21875 4.171875z" fill-rule="nonzero"/><path fill="#000000" d="m94.63653 119.28123l2.265625 0l0 0.421875l-2.265625 0l0 2.25l-0.421875 0l0 -2.25l-2.25 0l0 -0.421875l2.25 0l0 -2.265625l0.421875 0l0 2.265625z" fill-rule="nonzero"/><path fill="#000000" d="m61.280857 130.6281q0 1.109375 -0.75 1.703125q-0.75 0.578125 -2.125 0.578125l-1.171875 0l0 3.140625l-0.53125 0l0 -7.609375l1.859375 0q2.71875 0 2.71875 2.1875zm-4.046875 1.828125l1.046875 0q1.28125 0 1.84375 -0.421875q0.578125 -0.4375 0.578125 -1.390625q0 -0.875 -0.546875 -1.296875q-0.53125 -0.421875 -1.671875 -0.421875l-1.25 0l0 3.53125zm6.23349 0.28125l0 3.3125l-0.53125 0l0 -7.609375l1.8125038 0q1.40625 0 2.078125 0.53125q0.6875 0.515625 0.6875 1.5625q0 0.765625 -0.40625 1.296875q-0.40625 0.53125 -1.21875 0.75l2.0625 3.46875l-0.640625 0l-1.953125 -3.3125l-1.8906288 0zm0 -0.453125l1.4531288 0q0.953125 0 1.484375 -0.421875q0.53125 -0.4375 0.53125 -1.28125q0 -0.875 -0.515625 -1.265625q-0.515625 -0.390625 -1.703125 -0.390625l-1.2500038 0l0 3.359375zm12.1917305 -0.046875q0 1.8125 -0.90625 2.875q-0.90625 1.046875 -2.5 1.046875q-1.578125 0 -2.484375 -1.046875q-0.90625 -1.0625 -0.90625 -2.890625q0 -1.8125 0.90625 -2.859375q0.921875 -1.046875 2.5 -1.046875q1.59375 0 2.484375 1.0625q0.90625 1.046875 0.90625 2.859375zm-6.21875 0q0 1.625 0.71875 2.53125q0.734375 0.890625 2.09375 0.890625q1.375 0 2.09375 -0.890625q0.734375 -0.890625 0.734375 -2.53125q0 -1.640625 -0.734375 -2.515625q-0.71875 -0.890625 -2.078125 -0.890625q-1.359375 0 -2.09375 0.890625q-0.734375 0.890625 -0.734375 2.515625zm10.955582 -0.015625l2.8125 0l0 3.46875q-1.109375 0.46875 -2.484375 0.46875q-1.796875 0 -2.765625 -1.015625q-0.953125 -1.03125 -0.953125 -2.890625q0 -1.15625 0.46875 -2.046875q0.484375 -0.90625 1.359375 -1.390625q0.890625 -0.5 2.046875 -0.5q1.25 0 2.234375 0.46875l-0.21875 0.46875q-0.984375 -0.453125 -2.046875 -0.453125q-1.5 0 -2.390625 0.9375q-0.875 0.921875 -0.875 2.5q0 1.71875 0.828125 2.59375q0.84375 0.859375 2.46875 0.859375q1.046875 0 1.78125 -0.296875l0 -2.671875l-2.265625 0l0 -0.5zm5.252884 0.515625l0 3.3125l-0.53125 0l0 -7.609375l1.8125 0q1.40625 0 2.078125 0.53125q0.6875 0.515625 0.6875 1.5625q0 0.765625 -0.40625 1.296875q-0.40625 0.53125 -1.21875 0.75l2.0625 3.46875l-0.640625 0l-1.953125 -3.3125l-1.890625 0zm0 -0.453125l1.453125 0q0.953125 0 1.484375 -0.421875q0.53125 -0.4375 0.53125 -1.28125q0 -0.875 -0.515625 -1.265625q-0.515625 -0.390625 -1.703125 -0.390625l-1.25 0l0 3.359375zm9.457352 1.078125l-3.078125 0l-1.0625 2.6875l-0.59375 0l3.0625 -7.640625l0.328125 0l3.0 7.640625l-0.59375 0l-1.0625 -2.6875zm-2.890625 -0.46875l2.71875 0l-1.03125 -2.75q-0.140625 -0.328125 -0.3125 -0.890625q-0.140625 0.5 -0.3125 0.90625l-1.0625 2.734375zm8.972916 3.15625l-2.828125 -7.03125l-0.046875 0q0.046875 0.65625 0.046875 1.328125l0 5.703125l-0.515625 0l0 -7.609375l0.828125 0l2.6875 6.6875l0.03125 0l2.703125 -6.6875l0.796875 0l0 7.609375l-0.53125 0l0 -5.765625q0 -0.609375 0.0625 -1.25l-0.046875 0l-2.84375 7.015625l-0.34375 0zm9.194138 0l-2.828125 -7.03125l-0.046875 0q0.046875 0.65625 0.046875 1.328125l0 5.703125l-0.515625 0l0 -7.609375l0.828125 0l2.6875 6.6875l0.03125 0l2.703125 -6.6875l0.796875 0l0 7.609375l-0.53125 0l0 -5.765625q0 -0.609375 0.0625 -1.25l-0.046875 0l-2.84375 7.015625l-0.34375 0zm5.8503876 0l0 -7.609375l0.53125 0l0 7.609375l-0.53125 0zm8.2161255 0l-0.53125 0l-4.515625 -6.75l-0.03125 0q0.0625 1.203125 0.0625 1.8125l0 4.9375l-0.515625 0l0 -7.609375l0.53125 0l4.5 6.75l0.03125 0q-0.046875 -0.9375 -0.046875 -1.78125l0 -4.96875l0.515625 0l0 7.609375zm5.1383133 -3.828125l2.8125 0l0 3.46875q-1.109375 0.46875 -2.484375 0.46875q-1.796875 0 -2.7656174 -1.015625q-0.953125 -1.03125 -0.953125 -2.890625q0 -1.15625 0.46875 -2.046875q0.484375 -0.90625 1.3593674 -1.390625q0.890625 -0.5 2.046875 -0.5q1.25 0 2.234375 0.46875l-0.21875 0.46875q-0.984375 -0.453125 -2.046875 -0.453125q-1.5 0 -2.3906174 0.9375q-0.875 0.921875 -0.875 2.5q0 1.71875 0.828125 2.59375q0.8437424 0.859375 2.4687424 0.859375q1.046875 0 1.78125 -0.296875l0 -2.671875l-2.265625 0l0 -0.5z" fill-rule="nonzero"/><path fill="#000000" d="m73.12829 146.88121q0 0.953125 -0.703125 1.515625q-0.703125 0.5625 -1.859375 0.5625q-1.390625 0 -2.140625 -0.3125l0 -0.53125q0.828125 0.34375 2.09375 0.34375q0.9375 0 1.484375 -0.421875q0.546875 -0.4375 0.546875 -1.125q0 -0.4375 -0.1875 -0.71875q-0.171875 -0.28125 -0.59375 -0.515625q-0.40625 -0.234375 -1.203125 -0.5q-1.15625 -0.40625 -1.609375 -0.875q-0.4375 -0.46875 -0.4375 -1.234375q0 -0.859375 0.671875 -1.390625q0.671875 -0.546875 1.71875 -0.546875q1.0625 0 2.015625 0.40625l-0.203125 0.453125q-0.9375 -0.390625 -1.8125 -0.390625q-0.828125 0 -1.328125 0.390625q-0.5 0.390625 -0.5 1.0625q0 0.421875 0.140625 0.703125q0.15625 0.265625 0.5 0.484375q0.359375 0.203125 1.203125 0.515625q0.890625 0.296875 1.328125 0.59375q0.453125 0.28125 0.65625 0.65625q0.21875 0.359375 0.21875 0.875zm6.1818237 -3.453125q0 1.109375 -0.75 1.703125q-0.75 0.578125 -2.125 0.578125l-1.171875 0l0 3.140625l-0.53125 0l0 -7.609375l1.859375 0q2.71875 0 2.71875 2.1875zm-4.046875 1.828125l1.046875 0q1.28125 0 1.84375 -0.421875q0.578125 -0.4375 0.578125 -1.390625q0 -0.875 -0.546875 -1.296875q-0.53125 -0.421875 -1.671875 -0.421875l-1.25 0l0 3.53125zm9.85849 3.59375l-4.15625 0l0 -7.609375l4.15625 0l0 0.484375l-3.625 0l0 2.890625l3.421875 0l0 0.484375l-3.421875 0l0 3.265625l3.625 0l0 0.484375zm4.973419 -7.234375q-1.4375 0 -2.265625 0.921875q-0.8125 0.90625 -0.8125 2.5q0 1.625 0.765625 2.53125q0.78125 0.890625 2.21875 0.890625q0.96875 0 1.765625 -0.234375l0 0.46875q-0.75 0.265625 -1.890625 0.265625q-1.59375 0 -2.515625 -1.03125q-0.921875 -1.046875 -0.921875 -2.90625q0 -1.15625 0.4375 -2.03125q0.4375 -0.890625 1.265625 -1.375q0.828125 -0.484375 1.921875 -0.484375q1.109375 0 1.984375 0.421875l-0.203125 0.46875q-0.84375 -0.40625 -1.75 -0.40625zm3.3685303 7.234375l0 -7.609375l0.53125 0l0 7.609375l-0.53125 0zm6.3411255 -2.6875l-3.078125 0l-1.0625 2.6875l-0.59375 0l3.0625 -7.640625l0.328125 0l3.0 7.640625l-0.59375 0l-1.0625 -2.6875zm-2.890625 -0.46875l2.71875 0l-1.03125 -2.75q-0.140625 -0.328125 -0.3125 -0.890625q-0.140625 0.5 -0.3125 0.90625l-1.0625 2.734375zm5.6291656 3.15625l0 -7.609375l0.53125 0l0 7.109375l3.625 0l0 0.5l-4.15625 0zm5.4686127 0l0 -7.609375l0.53125 0l0 7.609375l-0.53125 0zm6.8880005 -1.96875q0 0.953125 -0.703125 1.515625q-0.703125 0.5625 -1.859375 0.5625q-1.390625 0 -2.140625 -0.3125l0 -0.53125q0.828125 0.34375 2.09375 0.34375q0.9375 0 1.484375 -0.421875q0.546875 -0.4375 0.546875 -1.125q0 -0.4375 -0.1875 -0.71875q-0.171875 -0.28125 -0.59375 -0.515625q-0.40625 -0.234375 -1.203125 -0.5q-1.15625 -0.40625 -1.609375 -0.875q-0.4375 -0.46875 -0.4375 -1.234375q0 -0.859375 0.671875 -1.390625q0.671875 -0.546875 1.71875 -0.546875q1.0625 0 2.015625 0.40625l-0.203125 0.453125q-0.9375 -0.390625 -1.8125 -0.390625q-0.828125 0 -1.328125 0.390625q-0.5 0.390625 -0.5 1.0625q0 0.421875 0.140625 0.703125q0.15625 0.265625 0.5 0.484375q0.359375 0.203125 1.203125 0.515625q0.890625 0.296875 1.328125 0.59375q0.453125 0.28125 0.65625 0.65625q0.21875 0.359375 0.21875 0.875zm3.5880737 1.96875l-0.53125 0l0 -7.109375l-2.484375 0l0 -0.5l5.484375 0l0 0.5l-2.46875 0l0 7.109375z" fill-rule="nonzero"/></g></svg>