<svg version="1.1" viewBox="0.0 0.0 200.0 200.0" fill="none" stroke="none" stroke-linecap="square" stroke-miterlimit="10" xmlns:xlink="http://www.w3.org/1999/xlink" xmlns="http://www.w3.org/2000/svg"><clipPath id="p.0"><path d="m0 0l200.0 0l0 200.0l-200.0 0l0 -200.0z" clip-rule="nonzero"/></clipPath><g clip-path="url(#p.0)"><path fill="#000000" fill-opacity="0.0" d="m0 0l200.0 0l0 200.0l-200.0 0z" fill-rule="evenodd"/><path fill="#abd0e3" d="m34.27305 98.87122l36.259842 -72.51965l85.05512 0l36.259842 72.51965l-36.259842 72.519646l-85.05512 0z" fill-rule="evenodd"/><path stroke="#abd0e3" stroke-width="4.0" stroke-linejoin="round" stroke-linecap="butt" d="m34.27305 98.87122l36.259842 -72.51965l85.05512 0l36.259842 72.51965l-36.259842 72.519646l-85.05512 0z" fill-rule="evenodd"/><path fill="#ffffff" d="m15.640502 103.84498l36.259842 -72.51965l85.055115 0l36.259842 72.51965l-36.259842 72.519646l-85.055115 0z" fill-rule="evenodd"/><path stroke="#004568" stroke-width="4.0" stroke-linejoin="round" stroke-linecap="butt" d="m15.640502 103.84498l36.259842 -72.51965l85.055115 0l36.259842 72.51965l-36.259842 72.519646l-85.055115 0z" fill-rule="evenodd"/></g></svg>