<svg version="1.1" viewBox="0.0 0.0 200.0 200.0" fill="none" stroke="none" stroke-linecap="square" stroke-miterlimit="10" xmlns:xlink="http://www.w3.org/1999/xlink" xmlns="http://www.w3.org/2000/svg"><clipPath id="p.0"><path d="m0 0l200.0 0l0 200.0l-200.0 0l0 -200.0z" clip-rule="nonzero"/></clipPath><g clip-path="url(#p.0)"><path fill="#000000" fill-opacity="0.0" d="m0 0l200.0 0l0 200.0l-200.0 0z" fill-rule="evenodd"/><path fill="#95dac4" d="m34.27305 98.87122l36.259842 -72.51965l85.05512 0l36.259842 72.51965l-36.259842 72.519646l-85.05512 0z" fill-rule="evenodd"/><path stroke="#95dac4" stroke-width="4.0" stroke-linejoin="round" stroke-linecap="butt" d="m34.27305 98.87122l36.259842 -72.51965l85.05512 0l36.259842 72.51965l-36.259842 72.519646l-85.05512 0z" fill-rule="evenodd"/><path fill="#ffffff" d="m15.640502 103.84498l36.259842 -72.51965l85.055115 0l36.259842 72.51965l-36.259842 72.519646l-85.055115 0z" fill-rule="evenodd"/><path stroke="#1eb686" stroke-width="4.0" stroke-linejoin="round" stroke-linecap="butt" d="m15.640502 103.84498l36.259842 -72.51965l85.055115 0l36.259842 72.51965l-36.259842 72.519646l-85.055115 0z" fill-rule="evenodd"/><path fill="#000000" fill-opacity="0.0" d="m21.887138 67.20998l144.06299 0l0 42.015747l-144.06299 0z" fill-rule="evenodd"/><path fill="#1eb686" d="m49.367832 87.379974q0 1.484375 -0.5 2.734375q-0.5 1.234375 -1.390625 2.140625q-0.890625 0.890625 -2.15625 1.390625q-1.25 0.484375 -2.78125 0.484375l-5.15625 0l0 -13.484375l5.15625 0q1.53125 0 2.78125 0.5q1.265625 0.5 2.15625 1.390625q0.890625 0.890625 1.390625 2.125q0.5 1.234375 0.5 2.71875zm-2.5625 0q0 -1.109375 -0.3125 -1.984375q-0.296875 -0.890625 -0.84375 -1.5q-0.546875 -0.609375 -1.34375 -0.9375q-0.78125 -0.328125 -1.765625 -0.328125l-2.625 0l0 9.5l2.625 0q0.984375 0 1.765625 -0.328125q0.796875 -0.328125 1.34375 -0.9375q0.546875 -0.609375 0.84375 -1.484375q0.3125 -0.890625 0.3125 -2.0zm4.3986816 6.75l0 -9.578125l1.34375 0q0.359375 0 0.5 0.140625q0.140625 0.125 0.1875 0.4375l0.140625 1.171875q0.515625 -0.890625 1.203125 -1.40625q0.6875 -0.515625 1.546875 -0.515625q0.703125 0 1.171875 0.328125l-0.296875 1.71875q-0.03125 0.171875 -0.125 0.25q-0.09375 0.0625 -0.25 0.0625q-0.140625 0 -0.390625 -0.0625q-0.234375 -0.0625 -0.625 -0.0625q-0.71875 0 -1.234375 0.40625q-0.515625 0.390625 -0.875 1.15625l0 5.953125l-2.296875 0zm5.8048706 -1.265625q0 -0.296875 0.09375 -0.546875q0.109375 -0.265625 0.296875 -0.453125q0.203125 -0.1875 0.453125 -0.296875q0.265625 -0.109375 0.5625 -0.109375q0.296875 0 0.546875 0.109375q0.265625 0.109375 0.453125 0.296875q0.1875 0.1875 0.296875 0.453125q0.109375 0.25 0.109375 0.546875q0 0.296875 -0.109375 0.5625q-0.109375 0.25 -0.296875 0.4375q-0.1875 0.1875 -0.453125 0.28125q-0.25 0.109375 -0.546875 0.109375q-0.296875 0 -0.5625 -0.109375q-0.25 -0.09375 -0.453125 -0.28125q-0.1875 -0.1875 -0.296875 -0.4375q-0.09375 -0.265625 -0.09375 -0.5625zm7.463291 -3.484375l0 4.75l-2.5000038 0l0 -13.484375l4.390629 0q1.34375 0 2.328125 0.3125q1.0 0.3125 1.640625 0.890625q0.640625 0.5625 0.953125 1.359375q0.3125 0.796875 0.3125 1.734375q0 0.984375 -0.328125 1.796875q-0.328125 0.8125 -0.984375 1.40625q-0.65625 0.578125 -1.640625 0.90625q-0.96875 0.328125 -2.28125 0.328125l-1.890625 0zm0 -1.953125l1.890625 0q0.6875 0 1.203125 -0.171875q0.515625 -0.171875 0.84375 -0.5q0.34375 -0.328125 0.5 -0.78125q0.171875 -0.46875 0.171875 -1.03125q0 -0.546875 -0.171875 -0.984375q-0.15625 -0.4375 -0.5 -0.734375q-0.328125 -0.3125 -0.84375 -0.46875q-0.515625 -0.171875 -1.203125 -0.171875l-1.890625 0l0 4.84375zm11.394531 -7.15625l0 13.859375l-2.3125 0l0 -13.859375l2.3125 0zm10.102722 13.859375l-1.03125 0q-0.328125 0 -0.515625 -0.09375q-0.1875 -0.109375 -0.28125 -0.40625l-0.203125 -0.671875q-0.375 0.328125 -0.71875 0.578125q-0.34375 0.234375 -0.71875 0.40625q-0.375 0.171875 -0.796875 0.25q-0.421875 0.09375 -0.9375 0.09375q-0.609375 0 -1.125 -0.15625q-0.5 -0.171875 -0.875 -0.5q-0.359375 -0.328125 -0.578125 -0.8125q-0.203125 -0.484375 -0.203125 -1.125q0 -0.546875 0.28125 -1.078125q0.296875 -0.53125 0.953125 -0.953125q0.671875 -0.421875 1.765625 -0.703125q1.09375 -0.28125 2.734375 -0.3125l0 -0.5625q0 -0.953125 -0.40625 -1.40625q-0.40625 -0.46875 -1.1875 -0.46875q-0.546875 0 -0.921875 0.125q-0.375 0.125 -0.65625 0.296875q-0.265625 0.15625 -0.5 0.296875q-0.234375 0.125 -0.515625 0.125q-0.234375 0 -0.40625 -0.125q-0.171875 -0.125 -0.265625 -0.296875l-0.421875 -0.734375q1.65625 -1.515625 3.984375 -1.515625q0.84375 0 1.5 0.28125q0.65625 0.265625 1.109375 0.765625q0.453125 0.484375 0.6875 1.171875q0.25 0.671875 0.25 1.484375l0 6.046875zm-4.484375 -1.4375q0.359375 0 0.65625 -0.0625q0.296875 -0.0625 0.5625 -0.1875q0.265625 -0.140625 0.515625 -0.328125q0.25 -0.1875 0.5 -0.453125l0 -1.609375q-1.015625 0.03125 -1.6875 0.171875q-0.671875 0.125 -1.09375 0.328125q-0.40625 0.1875 -0.578125 0.453125q-0.171875 0.25 -0.171875 0.5625q0 0.609375 0.359375 0.875q0.359375 0.25 0.9375 0.25zm13.469681 -6.109375q-0.09375 0.125 -0.203125 0.203125q-0.09375 0.078125 -0.28125 0.078125q-0.171875 0 -0.34375 -0.109375q-0.171875 -0.109375 -0.40625 -0.234375q-0.21875 -0.140625 -0.546875 -0.25q-0.328125 -0.109375 -0.796875 -0.109375q-0.609375 0 -1.0625 0.21875q-0.453125 0.21875 -0.765625 0.640625q-0.296875 0.40625 -0.453125 0.984375q-0.140625 0.578125 -0.140625 1.328125q0 0.75 0.15625 1.359375q0.171875 0.59375 0.46875 1.0q0.3125 0.40625 0.75 0.625q0.4375 0.203125 0.984375 0.203125q0.5625 0 0.890625 -0.140625q0.34375 -0.140625 0.578125 -0.296875q0.234375 -0.15625 0.40625 -0.296875q0.171875 -0.140625 0.390625 -0.140625q0.28125 0 0.421875 0.21875l0.65625 0.84375q-0.375 0.4375 -0.828125 0.75q-0.453125 0.296875 -0.9375 0.484375q-0.46875 0.171875 -0.984375 0.25q-0.515625 0.078125 -1.015625 0.078125q-0.890625 0 -1.671875 -0.328125q-0.78125 -0.328125 -1.375 -0.96875q-0.578125 -0.640625 -0.921875 -1.546875q-0.328125 -0.921875 -0.328125 -2.09375q0 -1.0625 0.296875 -1.953125q0.296875 -0.90625 0.890625 -1.5625q0.59375 -0.65625 1.453125 -1.03125q0.875 -0.375 2.0 -0.375q1.078125 0 1.875 0.34375q0.8125 0.34375 1.453125 0.984375l-0.609375 0.84375zm4.6334076 -2.03125l0 9.578125l-2.3125 0l0 -9.578125l2.3125 0zm0.34375 -2.78125q0 0.296875 -0.125 0.5625q-0.125 0.265625 -0.328125 0.46875q-0.1875 0.1875 -0.46875 0.3125q-0.265625 0.109375 -0.578125 0.109375q-0.296875 0 -0.5625 -0.109375q-0.265625 -0.125 -0.46875 -0.3125q-0.1875 -0.203125 -0.3125 -0.46875q-0.109375 -0.265625 -0.109375 -0.5625q0 -0.3125 0.109375 -0.578125q0.125 -0.265625 0.3125 -0.453125q0.203125 -0.203125 0.46875 -0.3125q0.265625 -0.125 0.5625 -0.125q0.3125 0 0.578125 0.125q0.28125 0.109375 0.46875 0.3125q0.203125 0.1875 0.328125 0.453125q0.125 0.265625 0.125 0.578125zm8.993347 12.359375q-0.453125 0 -0.59375 -0.421875l-0.1875 -0.921875q-0.296875 0.34375 -0.625 0.609375q-0.328125 0.265625 -0.703125 0.46875q-0.375 0.1875 -0.8125 0.296875q-0.421875 0.109375 -0.9375 0.109375q-0.78125 0 -1.4375 -0.328125q-0.640625 -0.328125 -1.125 -0.9375q-0.46875 -0.625 -0.734375 -1.53125q-0.25 -0.921875 -0.25 -2.09375q0 -1.078125 0.28125 -1.984375q0.296875 -0.921875 0.84375 -1.59375q0.546875 -0.671875 1.296875 -1.046875q0.75 -0.375 1.703125 -0.375q0.796875 0 1.359375 0.265625q0.578125 0.25 1.03125 0.671875l0 -5.046875l2.296875 0l0 13.859375l-1.40625 0zm-3.078125 -1.6875q0.71875 0 1.21875 -0.296875q0.515625 -0.296875 0.96875 -0.84375l0 -4.296875q-0.40625 -0.484375 -0.875 -0.671875q-0.453125 -0.203125 -0.984375 -0.203125q-0.515625 0 -0.9375 0.203125q-0.421875 0.1875 -0.71875 0.59375q-0.296875 0.390625 -0.453125 1.0q-0.15625 0.609375 -0.15625 1.453125q0 0.828125 0.125 1.421875q0.140625 0.578125 0.390625 0.953125q0.25 0.359375 0.609375 0.53125q0.375 0.15625 0.8125 0.15625zm13.297226 -3.0625l0 4.75l-2.5 0l0 -13.484375l4.390625 0q1.34375 0 2.328125 0.3125q1.0 0.3125 1.640625 0.890625q0.640625 0.5625 0.953125 1.359375q0.3125 0.796875 0.3125 1.734375q0 0.984375 -0.328125 1.796875q-0.328125 0.8125 -0.984375 1.40625q-0.65625 0.578125 -1.640625 0.90625q-0.96875 0.328125 -2.28125 0.328125l-1.890625 0zm0 -1.953125l1.890625 0q0.6875 0 1.203125 -0.171875q0.515625 -0.171875 0.84375 -0.5q0.34375 -0.328125 0.5 -0.78125q0.171875 -0.46875 0.171875 -1.03125q0 -0.546875 -0.171875 -0.984375q-0.15625 -0.4375 -0.5 -0.734375q-0.328125 -0.3125 -0.84375 -0.46875q-0.515625 -0.171875 -1.203125 -0.171875l-1.890625 0l0 4.84375zm15.974754 6.703125l-1.03125 0q-0.328125 0 -0.515625 -0.09375q-0.1875 -0.109375 -0.28125 -0.40625l-0.203125 -0.671875q-0.375 0.328125 -0.71875 0.578125q-0.34375 0.234375 -0.71875 0.40625q-0.375 0.171875 -0.796875 0.25q-0.421875 0.09375 -0.9375 0.09375q-0.609375 0 -1.125 -0.15625q-0.5 -0.171875 -0.8750076 -0.5q-0.359375 -0.328125 -0.578125 -0.8125q-0.203125 -0.484375 -0.203125 -1.125q0 -0.546875 0.28125 -1.078125q0.296875 -0.53125 0.9531326 -0.953125q0.671875 -0.421875 1.765625 -0.703125q1.09375 -0.28125 2.734375 -0.3125l0 -0.5625q0 -0.953125 -0.40625 -1.40625q-0.40625 -0.46875 -1.1875 -0.46875q-0.546875 0 -0.921875 0.125q-0.375 0.125 -0.65625 0.296875q-0.265625 0.15625 -0.5 0.296875q-0.234375 0.125 -0.515625 0.125q-0.234375 0 -0.40625 -0.125q-0.171875 -0.125 -0.265625 -0.296875l-0.42188263 -0.734375q1.6562576 -1.515625 3.9843826 -1.515625q0.84375 0 1.5 0.28125q0.65625 0.265625 1.109375 0.765625q0.453125 0.484375 0.6875 1.171875q0.25 0.671875 0.25 1.484375l0 6.046875zm-4.484375 -1.4375q0.359375 0 0.65625 -0.0625q0.296875 -0.0625 0.5625 -0.1875q0.265625 -0.140625 0.515625 -0.328125q0.25 -0.1875 0.5 -0.453125l0 -1.609375q-1.015625 0.03125 -1.6875 0.171875q-0.671875 0.125 -1.09375 0.328125q-0.40625 0.1875 -0.578125 0.453125q-0.171875 0.25 -0.171875 0.5625q0 0.609375 0.359375 0.875q0.359375 0.25 0.9375 0.25zm8.860306 -8.140625l0 6.09375q0 0.875 0.40625 1.359375q0.40625 0.46875 1.21875 0.46875q0.59375 0 1.109375 -0.265625q0.53125 -0.265625 1.0 -0.734375l0 -6.921875l2.296875 0l0 9.578125l-1.40625 0q-0.453125 0 -0.59375 -0.421875l-0.15625 -0.765625q-0.296875 0.296875 -0.625 0.546875q-0.3125 0.25 -0.671875 0.421875q-0.359375 0.171875 -0.78125 0.265625q-0.40625 0.109375 -0.875 0.109375q-0.78125 0 -1.390625 -0.265625q-0.59375 -0.265625 -1.015625 -0.75q-0.40625 -0.5 -0.625 -1.15625q-0.203125 -0.671875 -0.203125 -1.46875l0 -6.09375l2.3125 0zm10.949829 -4.28125l0 13.859375l-2.3125 0l0 -13.859375l2.3125 0z" fill-rule="nonzero"/><path fill="#000000" fill-opacity="0.0" d="m42.44357 91.20998l103.968506 0l0 58.173233l-103.968506 0z" fill-rule="evenodd"/><path fill="#000000" d="m76.94394 103.2156q-1.4375 0 -2.265625 0.921875q-0.8125 0.90625 -0.8125 2.5q0 1.625 0.765625 2.53125q0.78125 0.890625 2.21875 0.890625q0.96875 0 1.765625 -0.234375l0 0.46875q-0.75 0.265625 -1.890625 0.265625q-1.59375 0 -2.515625 -1.03125q-0.921875 -1.046875 -0.921875 -2.90625q0 -1.15625 0.4375 -2.03125q0.4375 -0.890625 1.265625 -1.375q0.828125 -0.484375 1.921875 -0.484375q1.109375 0 1.984375 0.421875l-0.203125 0.46875q-0.84375 -0.40625 -1.75 -0.40625zm3.3685303 7.234375l0 -7.609375l0.53125 0l0 7.109375l3.625 0l0 0.5l-4.15625 0zm5.4686127 0l0 -7.609375l0.53125 0l0 7.609375l-0.53125 0zm8.2161255 0l-0.53125 0l-4.515625 -6.75l-0.03125 0q0.0625 1.203125 0.0625 1.8125l0 4.9375l-0.515625 0l0 -7.609375l0.53125 0l4.5 6.75l0.03125 0q-0.046875 -0.9375 -0.046875 -1.78125l0 -4.96875l0.515625 0l0 7.609375zm2.153946 0l0 -7.609375l0.53125 0l0 7.609375l-0.53125 0zm5.9348755 -7.234375q-1.4375 0 -2.265625 0.921875q-0.8125 0.90625 -0.8125 2.5q0 1.625 0.765625 2.53125q0.78125 0.890625 2.21875 0.890625q0.96875 0 1.765625 -0.234375l0 0.46875q-0.75 0.265625 -1.890625 0.265625q-1.59375 0 -2.515625 -1.03125q-0.921875 -1.046875 -0.921875 -2.90625q0 -1.15625 0.4375 -2.03125q0.4375 -0.890625 1.265625 -1.375q0.828125 -0.484375 1.921875 -0.484375q1.109375 0 1.984375 0.421875l-0.203125 0.46875q-0.84375 -0.40625 -1.75 -0.40625zm7.0247803 4.546875l-3.078125 0l-1.0625 2.6875l-0.59375 0l3.0625 -7.640625l0.328125 0l3.0 7.640625l-0.59375 0l-1.0625 -2.6875zm-2.890625 -0.46875l2.71875 0l-1.03125 -2.75q-0.140625 -0.328125 -0.3125 -0.890625q-0.140625 0.5 -0.3125 0.90625l-1.0625 2.734375zm5.6291656 3.15625l0 -7.609375l0.53125 0l0 7.109375l3.625 0l0 0.5l-4.15625 0z" fill-rule="nonzero"/><path fill="#000000" d="m65.87793 117.8281q0 1.109375 -0.75 1.703125q-0.75 0.578125 -2.1250038 0.578125l-1.171875 0l0 3.140625l-0.53125 0l0 -7.609375l1.859375 0q2.7187538 0 2.7187538 2.1875zm-4.046879 1.828125l1.046875 0q1.2812538 0 1.8437538 -0.421875q0.578125 -0.4375 0.578125 -1.390625q0 -0.875 -0.546875 -1.296875q-0.53125 -0.421875 -1.6718788 -0.421875l-1.25 0l0 3.53125zm6.233494 0.28125l0 3.3125l-0.53125 0l0 -7.609375l1.8125 0q1.40625 0 2.078125 0.53125q0.6875 0.515625 0.6875 1.5625q0 0.765625 -0.40625 1.296875q-0.40625 0.53125 -1.21875 0.75l2.0625 3.46875l-0.640625 0l-1.953125 -3.3125l-1.890625 0zm0 -0.453125l1.453125 0q0.953125 0 1.484375 -0.421875q0.53125 -0.4375 0.53125 -1.28125q0 -0.875 -0.515625 -1.265625q-0.515625 -0.390625 -1.703125 -0.390625l-1.25 0l0 3.359375zm12.191727 -0.046875q0 1.8125 -0.90625 2.875q-0.90625 1.046875 -2.5 1.046875q-1.578125 0 -2.484375 -1.046875q-0.90625 -1.0625 -0.90625 -2.890625q0 -1.8125 0.90625 -2.859375q0.921875 -1.046875 2.5 -1.046875q1.59375 0 2.484375 1.0625q0.90625 1.046875 0.90625 2.859375zm-6.21875 0q0 1.625 0.71875 2.53125q0.734375 0.890625 2.09375 0.890625q1.375 0 2.09375 -0.890625q0.734375 -0.890625 0.734375 -2.53125q0 -1.640625 -0.734375 -2.515625q-0.71875 -0.890625 -2.078125 -0.890625q-1.359375 0 -2.09375 0.890625q-0.734375 0.890625 -0.734375 2.515625zm10.955582 -0.015625l2.8125 0l0 3.46875q-1.109375 0.46875 -2.484375 0.46875q-1.796875 0 -2.765625 -1.015625q-0.953125 -1.03125 -0.953125 -2.890625q0 -1.15625 0.46875 -2.046875q0.484375 -0.90625 1.359375 -1.390625q0.890625 -0.5 2.046875 -0.5q1.25 0 2.234375 0.46875l-0.21875 0.46875q-0.984375 -0.453125 -2.046875 -0.453125q-1.5 0 -2.390625 0.9375q-0.875 0.921875 -0.875 2.5q0 1.71875 0.828125 2.59375q0.84375 0.859375 2.46875 0.859375q1.046875 0 1.78125 -0.296875l0 -2.671875l-2.265625 0l0 -0.5zm5.252884 0.515625l0 3.3125l-0.53125 0l0 -7.609375l1.8125 0q1.40625 0 2.078125 0.53125q0.6875 0.515625 0.6875 1.5625q0 0.765625 -0.40625 1.296875q-0.40625 0.53125 -1.21875 0.75l2.0625 3.46875l-0.640625 0l-1.953125 -3.3125l-1.890625 0zm0 -0.453125l1.453125 0q0.953125 0 1.484375 -0.421875q0.53125 -0.4375 0.53125 -1.28125q0 -0.875 -0.515625 -1.265625q-0.515625 -0.390625 -1.703125 -0.390625l-1.25 0l0 3.359375zm9.457352 1.078125l-3.078125 0l-1.0625 2.6875l-0.59375 0l3.0625 -7.640625l0.328125 0l3.0 7.640625l-0.59375 0l-1.0625 -2.6875zm-2.890625 -0.46875l2.71875 0l-1.03125 -2.75q-0.140625 -0.328125 -0.3125 -0.890625q-0.140625 0.5 -0.3125 0.90625l-1.0625 2.734375zm8.972916 3.15625l-2.828125 -7.03125l-0.046875 0q0.046875 0.65625 0.046875 1.328125l0 5.703125l-0.515625 0l0 -7.609375l0.828125 0l2.6875 6.6875l0.03125 0l2.703125 -6.6875l0.796875 0l0 7.609375l-0.53125 0l0 -5.765625q0 -0.609375 0.0625 -1.25l-0.046875 0l-2.84375 7.015625l-0.34375 0zm5.8503876 0l0 -7.609375l0.53125 0l0 7.609375l-0.53125 0zm8.2161255 0l-0.53125 0l-4.515625 -6.75l-0.03125 0q0.0625 1.203125 0.0625 1.8125l0 4.9375l-0.515625 0l0 -7.609375l0.53125 0l4.5 6.75l0.03125 0q-0.046875 -0.9375 -0.046875 -1.78125l0 -4.96875l0.515625 0l0 7.609375zm5.138321 -3.828125l2.8125 0l0 3.46875q-1.109375 0.46875 -2.484375 0.46875q-1.796875 0 -2.765625 -1.015625q-0.953125 -1.03125 -0.953125 -2.890625q0 -1.15625 0.46875 -2.046875q0.484375 -0.90625 1.359375 -1.390625q0.890625 -0.5 2.046875 -0.5q1.25 0 2.234375 0.46875l-0.21875 0.46875q-0.984375 -0.453125 -2.046875 -0.453125q-1.5 0 -2.390625 0.9375q-0.875 0.921875 -0.875 2.5q0 1.71875 0.828125 2.59375q0.84375 0.859375 2.46875 0.859375q1.046875 0 1.78125 -0.296875l0 -2.671875l-2.265625 0l0 -0.5z" fill-rule="nonzero"/><path fill="#000000" d="m65.43956 128.8156q-1.4375 0 -2.2656288 0.921875q-0.8125 0.90625 -0.8125 2.5q0 1.625 0.765625 2.53125q0.78125 0.890625 2.2187538 0.890625q0.96875 0 1.765625 -0.234375l0 0.46875q-0.75 0.265625 -1.890625 0.265625q-1.5937538 0 -2.5156288 -1.03125q-0.921875 -1.046875 -0.921875 -2.90625q0 -1.15625 0.4375 -2.03125q0.4375 -0.890625 1.265625 -1.375q0.8281288 -0.484375 1.9218788 -0.484375q1.109375 0 1.984375 0.421875l-0.203125 0.46875q-0.84375 -0.40625 -1.75 -0.40625zm9.759155 3.421875q0 1.8125 -0.90625 2.875q-0.90625 1.046875 -2.5 1.046875q-1.578125 0 -2.484375 -1.046875q-0.90625 -1.0625 -0.90625 -2.890625q0 -1.8125 0.90625 -2.859375q0.921875 -1.046875 2.5 -1.046875q1.59375 0 2.484375 1.0625q0.90625 1.046875 0.90625 2.859375zm-6.21875 0q0 1.625 0.71875 2.53125q0.734375 0.890625 2.09375 0.890625q1.375 0 2.09375 -0.890625q0.734375 -0.890625 0.734375 -2.53125q0 -1.640625 -0.734375 -2.515625q-0.71875 -0.890625 -2.078125 -0.890625q-1.359375 0 -2.09375 0.890625q-0.734375 0.890625 -0.734375 2.515625zm13.502457 3.8125l-0.53125 0l-4.515625 -6.75l-0.03125 0q0.0625 1.203125 0.0625 1.8125l0 4.9375l-0.515625 0l0 -7.609375l0.53125 0l4.5 6.75l0.03125 0q-0.046875 -0.9375 -0.046875 -1.78125l0 -4.96875l0.515625 0l0 7.609375zm6.357071 -1.96875q0 0.953125 -0.703125 1.515625q-0.703125 0.5625 -1.859375 0.5625q-1.390625 0 -2.140625 -0.3125l0 -0.53125q0.828125 0.34375 2.09375 0.34375q0.9375 0 1.484375 -0.421875q0.546875 -0.4375 0.546875 -1.125q0 -0.4375 -0.1875 -0.71875q-0.171875 -0.28125 -0.59375 -0.515625q-0.40625 -0.234375 -1.203125 -0.5q-1.15625 -0.40625 -1.609375 -0.875q-0.4375 -0.46875 -0.4375 -1.234375q0 -0.859375 0.671875 -1.390625q0.671875 -0.546875 1.71875 -0.546875q1.0625 0 2.015625 0.40625l-0.203125 0.453125q-0.9375 -0.390625 -1.8125 -0.390625q-0.828125 0 -1.328125 0.390625q-0.5 0.390625 -0.5 1.0625q0 0.421875 0.140625 0.703125q0.15625 0.265625 0.5 0.484375q0.359375 0.203125 1.203125 0.515625q0.890625 0.296875 1.328125 0.59375q0.453125 0.28125 0.65625 0.65625q0.21875 0.359375 0.21875 0.875zm7.1974487 -5.640625l0 4.921875q0 1.3125 -0.765625 2.0625q-0.75 0.734375 -2.109375 0.734375q-1.328125 0 -2.078125 -0.734375q-0.734375 -0.75 -0.734375 -2.078125l0 -4.90625l0.546875 0l0 4.921875q0 1.09375 0.59375 1.71875q0.609375 0.609375 1.734375 0.609375q1.078125 0 1.671875 -0.59375q0.609375 -0.609375 0.609375 -1.6875l0 -4.96875l0.53125 0zm2.070633 7.609375l0 -7.609375l0.53125 0l0 7.109375l3.625 0l0 0.5l-4.15625 0zm7.4529877 0l-0.53125 0l0 -7.109375l-2.484375 0l0 -0.5l5.484375 0l0 0.5l-2.46875 0l0 7.109375zm7.254959 -2.6875l-3.078125 0l-1.0625 2.6875l-0.59375 0l3.0625 -7.640625l0.328125 0l3.0 7.640625l-0.59375 0l-1.0625 -2.6875zm-2.890625 -0.46875l2.71875 0l-1.03125 -2.75q-0.140625 -0.328125 -0.3125 -0.890625q-0.140625 0.5 -0.3125 0.90625l-1.0625 2.734375zm11.160416 3.15625l-0.53125 0l-4.515625 -6.75l-0.03125 0q0.0625 1.203125 0.0625 1.8125l0 4.9375l-0.515625 0l0 -7.609375l0.53125 0l4.5 6.75l0.03125 0q-0.046875 -0.9375 -0.046875 -1.78125l0 -4.96875l0.515625 0l0 7.609375zm4.138321 0l-0.53125 0l0 -7.109375l-2.484375 0l0 -0.5l5.484375 0l0 0.5l-2.46875 0l0 7.109375z" fill-rule="nonzero"/></g></svg>